<svg width="117" height="42" viewBox="0 0 117 42" fill="none" xmlns="http://www.w3.org/2000/svg">
<path d="M7.27412 29.5H3.31389L3.33887 26.5767H7.27412C8.25689 26.5767 9.08558 26.356 9.76019 25.9146C10.4348 25.4648 10.9428 24.811 11.2843 23.9532C11.6341 23.0953 11.809 22.0584 11.809 20.8425V19.9555C11.809 19.0227 11.7091 18.2023 11.5092 17.4944C11.3176 16.7865 11.0303 16.191 10.6472 15.7079C10.2641 15.2249 9.7935 14.8626 9.23549 14.621C8.67748 14.3712 8.03618 14.2462 7.31159 14.2462H3.23893V11.3104H7.31159C8.52756 11.3104 9.63943 11.5186 10.6472 11.9351C11.6633 12.3432 12.5419 12.9303 13.2832 13.6966C14.0244 14.4628 14.5949 15.3789 14.9947 16.445C15.4028 17.5027 15.6068 18.6812 15.6068 19.9805V20.8425C15.6068 22.1334 15.4028 23.3119 14.9947 24.3779C14.5949 25.444 14.0244 26.3601 13.2832 27.1264C12.5503 27.8843 11.6716 28.4714 10.6472 28.8879C9.6311 29.296 8.50674 29.5 7.27412 29.5ZM5.43767 11.3104V29.5H1.68982V11.3104H5.43767ZM25.6136 11.3104V29.5H21.8782V11.3104H25.6136ZM31.2104 11.3104V14.2462H16.3689V11.3104H31.2104ZM40.7549 11.3104H43.9281L48.6004 24.6653L53.2727 11.3104H56.4459L49.8747 29.5H47.3261L40.7549 11.3104ZM39.0434 11.3104H42.2041L42.7788 24.328V29.5H39.0434V11.3104ZM54.9967 11.3104H58.1699V29.5H54.4221V24.328L54.9967 11.3104ZM60.656 22.8788V22.6164C60.656 21.6253 60.7976 20.7134 61.0808 19.8805C61.3639 19.0393 61.7762 18.3106 62.3175 17.6943C62.8589 17.078 63.5252 16.5991 64.3164 16.2576C65.1076 15.9078 66.0154 15.7329 67.0398 15.7329C68.0642 15.7329 68.9762 15.9078 69.7758 16.2576C70.5753 16.5991 71.2458 17.078 71.7871 17.6943C72.3368 18.3106 72.7532 19.0393 73.0364 19.8805C73.3196 20.7134 73.4612 21.6253 73.4612 22.6164V22.8788C73.4612 23.8616 73.3196 24.7735 73.0364 25.6147C72.7532 26.4476 72.3368 27.1763 71.7871 27.801C71.2458 28.4173 70.5795 28.8962 69.7883 29.2377C68.997 29.5791 68.0892 29.7499 67.0648 29.7499C66.0404 29.7499 65.1284 29.5791 64.3289 29.2377C63.5377 28.8962 62.8672 28.4173 62.3175 27.801C61.7762 27.1763 61.3639 26.4476 61.0808 25.6147C60.7976 24.7735 60.656 23.8616 60.656 22.8788ZM64.2539 22.6164V22.8788C64.2539 23.4451 64.3039 23.974 64.4038 24.4654C64.5038 24.9568 64.662 25.3899 64.8786 25.7646C65.1034 26.1311 65.3949 26.4184 65.7531 26.6266C66.1112 26.8349 66.5485 26.939 67.0648 26.939C67.5645 26.939 67.9935 26.8349 68.3516 26.6266C68.7097 26.4184 68.997 26.1311 69.2136 25.7646C69.4301 25.3899 69.5884 24.9568 69.6883 24.4654C69.7966 23.974 69.8507 23.4451 69.8507 22.8788V22.6164C69.8507 22.0668 69.7966 21.5504 69.6883 21.0673C69.5884 20.576 69.426 20.1429 69.2011 19.7681C68.9846 19.385 68.6972 19.0851 68.3391 18.8686C67.981 18.6521 67.5479 18.5438 67.0398 18.5438C66.5318 18.5438 66.0987 18.6521 65.7406 18.8686C65.3908 19.0851 65.1034 19.385 64.8786 19.7681C64.662 20.1429 64.5038 20.576 64.4038 21.0673C64.3039 21.5504 64.2539 22.0668 64.2539 22.6164ZM79.1954 18.8686V29.5H75.5974V15.9828H78.9705L79.1954 18.8686ZM78.6707 22.2666H77.6962C77.6962 21.2672 77.8253 20.3677 78.0835 19.5682C78.3417 18.7603 78.704 18.0732 79.1704 17.5069C79.6368 16.9322 80.1906 16.495 80.8319 16.1951C81.4816 15.887 82.2061 15.7329 83.0057 15.7329C83.6386 15.7329 84.2175 15.8245 84.7422 16.0077C85.2669 16.191 85.7166 16.4825 86.0914 16.8822C86.4745 17.282 86.766 17.8109 86.9659 18.4688C87.1741 19.1268 87.2782 19.9305 87.2782 20.8799V29.5H83.6553V20.8675C83.6553 20.2678 83.572 19.8014 83.4054 19.4683C83.2389 19.1351 82.9932 18.9019 82.6684 18.7687C82.3519 18.6271 81.9604 18.5563 81.494 18.5563C81.011 18.5563 80.5904 18.6521 80.2323 18.8436C79.8825 19.0352 79.591 19.3017 79.3578 19.6432C79.1329 19.9763 78.9622 20.3677 78.8456 20.8175C78.729 21.2672 78.6707 21.7503 78.6707 22.2666ZM96.2356 29.7499C95.1862 29.7499 94.2451 29.5833 93.4122 29.2501C92.5794 28.9087 91.8714 28.4381 91.2884 27.8385C90.7138 27.2388 90.2723 26.5434 89.9642 25.7521C89.656 24.9526 89.502 24.1031 89.502 23.2036V22.7039C89.502 21.6795 89.6477 20.7425 89.9392 19.893C90.2307 19.0435 90.6471 18.3064 91.1885 17.6818C91.7382 17.0571 92.4045 16.5782 93.1873 16.2451C93.9702 15.9036 94.853 15.7329 95.8358 15.7329C96.7936 15.7329 97.6431 15.8911 98.3844 16.2076C99.1256 16.5241 99.7461 16.9739 100.246 17.5569C100.754 18.1398 101.137 18.8394 101.395 19.6556C101.653 20.4635 101.782 21.363 101.782 22.3541V23.8532H91.0386V21.4546H98.2469V21.1798C98.2469 20.6801 98.1553 20.2345 97.9721 19.843C97.7972 19.4433 97.5307 19.1268 97.1726 18.8936C96.8144 18.6604 96.3564 18.5438 95.7983 18.5438C95.3236 18.5438 94.9155 18.6479 94.574 18.8561C94.2326 19.0643 93.9536 19.3558 93.737 19.7306C93.5288 20.1054 93.3706 20.5468 93.2623 21.0548C93.1624 21.5546 93.1124 22.1042 93.1124 22.7039V23.2036C93.1124 23.745 93.1873 24.2447 93.3373 24.7028C93.4955 25.1608 93.7162 25.5564 93.9994 25.8896C94.2909 26.2227 94.6407 26.4809 95.0488 26.6641C95.4652 26.8474 95.9358 26.939 96.4605 26.939C97.1101 26.939 97.7139 26.814 98.2719 26.5642C98.8383 26.306 99.3255 25.9187 99.7336 25.4024L101.483 27.3013C101.199 27.7094 100.812 28.1008 100.321 28.4756C99.8377 28.8504 99.2547 29.1585 98.5717 29.4001C97.8888 29.6333 97.1101 29.7499 96.2356 29.7499ZM107.667 27.9759L111.252 15.9828H115.112L109.678 31.5363C109.561 31.8778 109.403 32.2443 109.203 32.6357C109.012 33.0271 108.749 33.3978 108.416 33.7476C108.091 34.1057 107.679 34.3972 107.179 34.6221C106.688 34.8469 106.084 34.9594 105.368 34.9594C105.026 34.9594 104.747 34.9385 104.531 34.8969C104.314 34.8553 104.056 34.797 103.756 34.722V32.086C103.848 32.086 103.944 32.086 104.044 32.086C104.144 32.0943 104.239 32.0985 104.331 32.0985C104.806 32.0985 105.193 32.0444 105.493 31.9361C105.793 31.8278 106.034 31.6613 106.217 31.4364C106.401 31.2198 106.546 30.9367 106.655 30.5869L107.667 27.9759ZM106.167 15.9828L109.103 25.7771L109.615 29.5874L107.167 29.8498L102.307 15.9828H106.167Z" fill="#E1E1E6"/>
</svg>
